<svg xmlns="http://www.w3.org/2000/svg" width="97.868" height="97.868" viewBox="0 0 97.868 97.868">
  <path id="_2703062_user_account_profile_icon" data-name="2703062_user_account_profile_icon" d="M98.368,49.684A48.684,48.684,0,1,0,15.9,84.665a2.971,2.971,0,0,0,.767.7,48.4,48.4,0,0,0,66.027,0,2.971,2.971,0,0,0,.767-.7A48.512,48.512,0,0,0,98.368,49.684ZM49.684,7.086A42.538,42.538,0,0,1,83.072,76.058c-2.639-8.511-10.173-15.174-20.4-18.239a22.207,22.207,0,1,0-25.978,0c-10.226,3.066-17.76,9.729-20.4,18.239A42.538,42.538,0,0,1,49.684,7.086ZM33.563,39.868A16.121,16.121,0,1,1,49.684,55.96,16.124,16.124,0,0,1,33.563,39.868ZM21.41,81.459C22.325,70.3,34.155,62.045,49.684,62.045S77.044,70.3,77.958,81.459a42.34,42.34,0,0,1-56.549,0Z" transform="translate(-0.75 -0.75)" fill="#1d1d1b" stroke="#707070" stroke-width="0.5"/>
</svg>
